# xmcd CD database file
#
# Track frame offsets:
#	150
#	22692
#	44652
#	68782
#
# Disc length: 1193 seconds
#
# Revision: 0
# Processed by: cddbd v1.5.1PL0 Copyright (c) Steve Scherf et al.
# Submitted via: CDex 1.51
#
DISCID=2b04a704
DTITLE=ROLL DAYS - ALTERNATIVE SINGLE FILE
DYEAR=1996
DGENRE=JPop
TTITLE0=好きだよ ずっと好きでした(RED MONSTER MIX)
TTITLE1=CRAZY CRAZY(CYBER GROOVE MIX)
TTITLE2=PLASTIC SUMMER(HANDBAG MIX)
TTITLE3=BREAK YOURSELF(RED MONSTER MIX)
EXTD=YEAR: 1996
EXTT0=
EXTT1=
EXTT2=
EXTT3=
PLAYORDER=
